{
  "accessors": [
    {
      "bufferView": 2,
      "componentType": 5126,
      "count": 38812,
      "max": [
        112489.6484375,
        54935.46484375,
        34287.2109375
      ],
      "min": [
        -56764.82421875,
        -97180.1875,
        -1.9290828991835184e-19
      ],
      "type": "VEC3"
    },
    {
      "bufferView": 0,
      "componentType": 5125,
      "count": 150064,
      "type": "SCALAR"
    },
    {
      "bufferView": 2,
      "byteOffset": 465744,
      "componentType": 5126,
      "count": 8,
      "max": [
        57941.7109375,
        -12587.9306640625,
        17698.23046875
      ],
      "min": [
        -21653.16796875,
        -81071.1328125,
        17698.23046875
      ],
      "type": "VEC3"
    },
    {
      "bufferView": 0,
      "byteOffset": 600256,
      "componentType": 5125,
      "count": 8,
      "type": "SCALAR"
    },
    {
      "bufferView": 2,
      "byteOffset": 465840,
      "componentType": 5126,
      "count": 65532,
      "max": [
        95252.6484375,
        43012.41796875,
        19726.220703125
      ],
      "min": [
        -49144.0390625,
        -80996.71875,
        1193.31494140625
      ],
      "type": "VEC3"
    },
    {
      "bufferView": 2,
      "byteOffset": 1252224,
      "componentType": 5126,
      "count": 65532,
      "max": [
        1.0,
        1.0,
        1.0
      ],
      "min": [
        -1.0,
        -1.0,
        -1.0
      ],
      "type": "VEC3"
    },
    {
      "bufferView": 1,
      "componentType": 5126,
      "count": 65532,
      "max": [
        71367.546875,
        70260.40625
      ],
      "min": [
        -71367.546875,
        -69581.2265625
      ],
      "type": "VEC2"
    },
    {
      "bufferView": 0,
      "byteOffset": 600288,
      "componentType": 5125,
      "count": 137640,
      "type": "SCALAR"
    },
    {
      "bufferView": 2,
      "byteOffset": 2038608,
      "componentType": 5126,
      "count": 65532,
      "max": [
        95957.7578125,
        9061.169921875,
        34287.2109375
      ],
      "min": [
        -47461.48046875,
        -89512.859375,
        1100.47998046875
      ],
      "type": "VEC3"
    },
    {
      "bufferView": 2,
      "byteOffset": 2824992,
      "componentType": 5126,
      "count": 65532,
      "max": [
        1.0,
        1.0,
        1.0
      ],
      "min": [
        -1.0,
        -1.0,
        -1.0
      ],
      "type": "VEC3"
    },
    {
      "bufferView": 1,
      "byteOffset": 524256,
      "componentType": 5126,
      "count": 65532,
      "max": [
        75670.6171875,
        36309.16015625
      ],
      "min": [
        -75670.6171875,
        -1.7097429497029727e-14
      ],
      "type": "VEC2"
    },
    {
      "bufferView": 0,
      "byteOffset": 1150848,
      "componentType": 5125,
      "count": 166911,
      "type": "SCALAR"
    },
    {
      "bufferView": 2,
      "byteOffset": 3611376,
      "componentType": 5126,
      "count": 65532,
      "max": [
        95941.2109375,
        22496.310546875,
        34287.2109375
      ],
      "min": [
        -34239.3515625,
        -81395.9296875,
        1100.47998046875
      ],
      "type": "VEC3"
    },
    {
      "bufferView": 2,
      "byteOffset": 4397760,
      "componentType": 5126,
      "count": 65532,
      "max": [
        1.0,
        1.0,
        1.0
      ],
      "min": [
        -1.0,
        -1.0,
        -1.0
      ],
      "type": "VEC3"
    },
    {
      "bufferView": 1,
      "byteOffset": 1048512,
      "componentType": 5126,
      "count": 65532,
      "max": [
        75670.6171875,
        61407.640625
      ],
      "min": [
        -75670.6171875,
        -61948.33984375
      ],
      "type": "VEC2"
    },
    {
      "bufferView": 0,
      "byteOffset": 1818492,
      "componentType": 5125,
      "count": 148935,
      "type": "SCALAR"
    },
    {
      "bufferView": 2,
      "byteOffset": 5184144,
      "componentType": 5126,
      "count": 14223,
      "max": [
        61216.9296875,
        22931.560546875,
        11378.7802734375
      ],
      "min": [
        -23223.73046875,
        19560.330078125,
        1452.345947265625
      ],
      "type": "VEC3"
    },
    {
      "bufferView": 2,
      "byteOffset": 5354820,
      "componentType": 5126,
      "count": 14223,
      "max": [
        1.0,
        1.0,
        1.0
      ],
      "min": [
        -1.0,
        -1.0,
        -1.0
      ],
      "type": "VEC3"
    },
    {
      "bufferView": 1,
      "byteOffset": 1572768,
      "componentType": 5126,
      "count": 14223,
      "max": [
        63079.33984375,
        61407.640625
      ],
      "min": [
        -60788.08984375,
        -61948.33984375
      ],
      "type": "VEC2"
    },
    {
      "bufferView": 0,
      "byteOffset": 2414232,
      "componentType": 5125,
      "count": 26667,
      "type": "SCALAR"
    },
    {
      "bufferView": 2,
      "byteOffset": 5525496,
      "componentType": 5126,
      "count": 24506,
      "max": [
        103115.6328125,
        44083.05078125,
        8039.44921875
      ],
      "min": [
        -48990.4609375,
        -87369.15625,
        1412.0240478515625
      ],
      "type": "VEC3"
    },
    {
      "bufferView": 2,
      "byteOffset": 5819568,
      "componentType": 5126,
      "count": 24506,
      "max": [
        1.0,
        1.0,
        1.0
      ],
      "min": [
        -1.0,
        -1.0,
        -1.0
      ],
      "type": "VEC3"
    },
    {
      "bufferView": 1,
      "byteOffset": 1686552,
      "componentType": 5126,
      "count": 24506,
      "max": [
        75664.8515625,
        8039.44921875
      ],
      "min": [
        -75060.5,
        -1.332267947187543e-15
      ],
      "type": "VEC2"
    },
    {
      "bufferView": 0,
      "byteOffset": 2520900,
      "componentType": 5125,
      "count": 47619,
      "type": "SCALAR"
    },
    {
      "bufferView": 2,
      "byteOffset": 6113640,
      "componentType": 5126,
      "count": 96,
      "max": [
        112489.6484375,
        54935.46484375,
        1535.4329833984375
      ],
      "min": [
        -56764.82421875,
        -97180.1875,
        -1.9290828991835184e-19
      ],
      "type": "VEC3"
    },
    {
      "bufferView": 2,
      "byteOffset": 6114792,
      "componentType": 5126,
      "count": 96,
      "max": [
        0.5773502588272095,
        0.5773502588272095,
        0.5773502588272095
      ],
      "min": [
        -0.5773502588272095,
        -0.5773502588272095,
        -0.5773502588272095
      ],
      "type": "VEC3"
    },
    {
      "bufferView": 1,
      "byteOffset": 1882600,
      "componentType": 5126,
      "count": 96,
      "max": [
        2561.968017578125,
        2282.8740234375
      ],
      "min": [
        -2561.968017578125,
        -40.251041412353516
      ],
      "type": "VEC2"
    },
    {
      "bufferView": 0,
      "byteOffset": 2711376,
      "componentType": 5125,
      "count": 144,
      "type": "SCALAR"
    },
    {
      "bufferView": 2,
      "byteOffset": 6115944,
      "componentType": 5126,
      "count": 32,
      "max": [
        112489.6484375,
        54935.46484375,
        1535.4329833984375
      ],
      "min": [
        -56764.82421875,
        -97180.1875,
        -1.9290828991835184e-19
      ],
      "type": "VEC3"
    },
    {
      "bufferView": 2,
      "byteOffset": 6116328,
      "componentType": 5126,
      "count": 32,
      "max": [
        0.5773502588272095,
        0.5773502588272095,
        0.5773502588272095
      ],
      "min": [
        -0.5773502588272095,
        -0.5773502588272095,
        -0.5773502588272095
      ],
      "type": "VEC3"
    },
    {
      "bufferView": 0,
      "byteOffset": 2711952,
      "componentType": 5125,
      "count": 144,
      "type": "SCALAR"
    },
    {
      "bufferView": 2,
      "byteOffset": 6116712,
      "componentType": 5126,
      "count": 4688,
      "max": [
        108167.2109375,
        45059.08984375,
        1635.35400390625
      ],
      "min": [
        -49650.69140625,
        -90077.8203125,
        896.9448852539063
      ],
      "type": "VEC3"
    },
    {
      "bufferView": 2,
      "byteOffset": 6172968,
      "componentType": 5126,
      "count": 4688,
      "max": [
        0.9736450910568237,
        0.9314560294151306,
        1.0
      ],
      "min": [
        -0.9736450910568237,
        -0.9314560294151306,
        -1.0
      ],
      "type": "VEC3"
    },
    {
      "bufferView": 1,
      "byteOffset": 1883368,
      "componentType": 5126,
      "count": 4688,
      "max": [
        87880.15625,
        1635.35400390625
      ],
      "min": [
        -80647.1484375,
        6.577370186278131e-06
      ],
      "type": "VEC2"
    },
    {
      "bufferView": 0,
      "byteOffset": 2712528,
      "componentType": 5125,
      "count": 8928,
      "type": "SCALAR"
    }
  ],
  "asset": {
    "extras": {
      "author": "Pasha (https://sketchfab.com/Pasha.)",
      "license": "CC-BY-4.0 (http://creativecommons.org/licenses/by/4.0/)",
      "source": "https://sketchfab.com/3d-models/futuristic-city-b4c3c957fad245d580e7a7d1a01c526b",
      "title": "Futuristic city"
    },
    "generator": "Sketchfab-16.75.0",
    "version": "2.0"
  },
  "bufferViews": [
    {
      "buffer": 0,
      "byteLength": 2748240,
      "name": "floatBufferViews",
      "target": 34963
    },
    {
      "buffer": 0,
      "byteLength": 1920872,
      "byteOffset": 2748240,
      "byteStride": 8,
      "name": "floatBufferViews",
      "target": 34962
    },
    {
      "buffer": 0,
      "byteLength": 6229224,
      "byteOffset": 4669112,
      "byteStride": 12,
      "name": "floatBufferViews",
      "target": 34962
    }
  ],
  "buffers": [
    {
      "byteLength": 10898336,
      "uri": "scene.bin"
    }
  ],
  "extensionsUsed": [
    "KHR_materials_unlit",
    "KHR_texture_transform"
  ],
  "images": [
    {
      "uri": "textures/default_bldgs2_baseColor.jpeg"
    },
    {
      "uri": "textures/default_baseColor.jpeg"
    },
    {
      "uri": "textures/Wax_02_baseColor.jpeg"
    },
    {
      "uri": "textures/default_sidewalks_baseColor.jpeg"
    }
  ],
  "materials": [
    {
      "alphaMode": "BLEND",
      "doubleSided": true,
      "extensions": {
        "KHR_materials_unlit": {}
      },
      "name": "edge_color154150148255",
      "pbrMetallicRoughness": {
        "baseColorFactor": [
          1.0,
          1.0,
          1.0,
          0.0
        ],
        "metallicFactor": 0.0
      }
    },
    {
      "extensions": {
        "KHR_materials_unlit": {}
      },
      "name": "default_bldgs2",
      "pbrMetallicRoughness": {
        "baseColorTexture": {
          "index": 0
        },
        "metallicFactor": 0.0
      }
    },
    {
      "extensions": {
        "KHR_materials_unlit": {}
      },
      "name": "default",
      "pbrMetallicRoughness": {
        "baseColorTexture": {
          "index": 1
        },
        "metallicFactor": 0.0
      }
    },
    {
      "extensions": {
        "KHR_materials_unlit": {}
      },
      "name": "Wax_02",
      "pbrMetallicRoughness": {
        "baseColorTexture": {
          "extensions": {
            "KHR_texture_transform": {
              "offset": [
                0.01,
                0
              ],
              "scale": [
                0.01000000000000012,
                0.01000000000000012
              ]
            }
          },
          "index": 2
        },
        "metallicFactor": 0.0
      }
    },
    {
      "extensions": {
        "KHR_materials_unlit": {}
      },
      "name": "Default1",
      "pbrMetallicRoughness": {
        "baseColorFactor": [
          0.258823,
          0.258823,
          0.258823,
          1.0
        ],
        "metallicFactor": 0.0
      }
    },
    {
      "extensions": {
        "KHR_materials_unlit": {}
      },
      "name": "default_sidewalks",
      "pbrMetallicRoughness": {
        "baseColorTexture": {
          "index": 3
        },
        "metallicFactor": 0.0
      }
    }
  ],
  "meshes": [
    {
      "name": "Material3",
      "primitives": [
        {
          "attributes": {
            "POSITION": 0
          },
          "indices": 1,
          "material": 0,
          "mode": 1
        }
      ]
    },
    {
      "name": "Material2",
      "primitives": [
        {
          "attributes": {
            "POSITION": 2
          },
          "indices": 3,
          "material": 0,
          "mode": 1
        }
      ]
    },
    {
      "name": "Material2",
      "primitives": [
        {
          "attributes": {
            "NORMAL": 5,
            "POSITION": 4,
            "TEXCOORD_0": 6
          },
          "indices": 7,
          "material": 1,
          "mode": 4
        }
      ]
    },
    {
      "name": "Material2",
      "primitives": [
        {
          "attributes": {
            "NORMAL": 9,
            "POSITION": 8,
            "TEXCOORD_0": 10
          },
          "indices": 11,
          "material": 1,
          "mode": 4
        }
      ]
    },
    {
      "name": "Material2",
      "primitives": [
        {
          "attributes": {
            "NORMAL": 13,
            "POSITION": 12,
            "TEXCOORD_0": 14
          },
          "indices": 15,
          "material": 1,
          "mode": 4
        }
      ]
    },
    {
      "name": "Material2",
      "primitives": [
        {
          "attributes": {
            "NORMAL": 17,
            "POSITION": 16,
            "TEXCOORD_0": 18
          },
          "indices": 19,
          "material": 1,
          "mode": 4
        }
      ]
    },
    {
      "name": "Material2",
      "primitives": [
        {
          "attributes": {
            "NORMAL": 21,
            "POSITION": 20,
            "TEXCOORD_0": 22
          },
          "indices": 23,
          "material": 2,
          "mode": 4
        }
      ]
    },
    {
      "name": "Material2",
      "primitives": [
        {
          "attributes": {
            "NORMAL": 25,
            "POSITION": 24,
            "TEXCOORD_0": 26
          },
          "indices": 27,
          "material": 3,
          "mode": 4
        }
      ]
    },
    {
      "name": "Material3",
      "primitives": [
        {
          "attributes": {
            "NORMAL": 29,
            "POSITION": 28
          },
          "indices": 30,
          "material": 4,
          "mode": 4
        }
      ]
    },
    {
      "name": "Material2",
      "primitives": [
        {
          "attributes": {
            "NORMAL": 32,
            "POSITION": 31,
            "TEXCOORD_0": 33
          },
          "indices": 34,
          "material": 5,
          "mode": 4
        }
      ]
    }
  ],
  "nodes": [
    {
      "children": [
        1
      ],
      "matrix": [
        1.0,
        0.0,
        0.0,
        0.0,
        0.0,
        2.220446049250313e-16,
        -1.0,
        0.0,
        0.0,
        1.0,
        2.220446049250313e-16,
        0.0,
        0.0,
        0.0,
        0.0,
        1.0
      ],
      "name": "Sketchfab_model"
    },
    {
      "children": [
        2,
        3,
        4,
        5,
        6,
        7,
        8,
        9,
        10,
        11,
        12
      ],
      "name": "Collada visual scene group"
    },
    {
      "mesh": 0,
      "name": "Material3"
    },
    {
      "mesh": 1,
      "name": "Material2"
    },
    {
      "mesh": 2,
      "name": "Material2"
    },
    {
      "mesh": 3,
      "name": "Material2"
    },
    {
      "mesh": 4,
      "name": "Material2"
    },
    {
      "mesh": 5,
      "name": "Material2"
    },
    {
      "mesh": 6,
      "name": "Material2"
    },
    {
      "mesh": 7,
      "name": "Material2"
    },
    {
      "mesh": 8,
      "name": "Material3"
    },
    {
      "mesh": 9,
      "name": "Material2"
    },
    {
      "children": [
        13
      ],
      "name": "SketchUp"
    },
    {
      "children": [
        14
      ],
      "matrix": [
        -0.7456947,
        0.6662878,
        2.775558e-17,
        0.0,
        -0.2206714,
        -0.2469706,
        0.9435622,
        0.0,
        0.628684,
        0.7036093,
        0.3311953,
        0.0,
        312791.1,
        152338.0,
        62700.44,
        1.0
      ],
      "name": "skp_camera_Last_Saved_SketchUp_View"
    },
    {
      "name": "ID1"
    }
  ],
  "samplers": [
    {
      "magFilter": 9729,
      "minFilter": 9987,
      "wrapS": 10497,
      "wrapT": 10497
    }
  ],
  "scene": 0,
  "scenes": [
    {
      "name": "Sketchfab_Scene",
      "nodes": [
        0
      ]
    }
  ],
  "textures": [
    {
      "sampler": 0,
      "source": 0
    },
    {
      "sampler": 0,
      "source": 1
    },
    {
      "sampler": 0,
      "source": 2
    },
    {
      "sampler": 0,
      "source": 3
    }
  ]
}
